<svg width="150" height="150" viewBox="0 0 150 150" fill="none" xmlns="http://www.w3.org/2000/svg">
<path d="M76.5524 131.408C63.7283 131.401 51.3006 126.962 41.375 118.841C31.4494 110.721 24.6362 99.4185 22.0898 86.8497C19.5434 74.2809 21.4203 61.2182 27.4025 49.8748C33.3848 38.5314 43.1045 29.6049 54.9149 24.6075C68.4847 18.9401 83.7471 18.8797 97.3613 24.4395C110.976 29.9993 121.833 40.7264 127.556 54.2727C133.279 67.819 133.402 83.081 127.899 96.718C122.395 110.355 111.713 121.256 98.1899 127.035C91.3457 129.935 83.9859 131.423 76.5524 131.408V131.408ZM76.5524 24.435C63.8644 24.4555 51.636 29.1875 42.2393 37.7133C32.8426 46.2391 26.9472 57.951 25.6966 70.5774C24.4461 83.2037 27.9295 95.8445 35.4712 106.048C43.0129 116.251 54.0754 123.29 66.513 125.799C78.9506 128.308 91.8767 126.108 102.784 119.627C113.692 113.145 121.803 102.843 125.545 90.7193C129.288 78.5956 128.394 65.5142 123.037 54.0122C117.68 42.5103 108.243 33.4077 96.5549 28.47C90.2265 25.794 83.4234 24.4217 76.5524 24.435V24.435Z" fill="#7376B0"/>
<path d="M76.5524 22.9125C47.3324 22.9125 23.6399 46.5975 23.6399 75.825C23.6399 105.052 47.3324 128.737 76.5524 128.737C105.772 128.737 129.465 105.045 129.465 75.825C129.465 46.605 105.78 22.9125 76.5524 22.9125ZM127.942 75.825C127.93 88.5349 123.198 100.787 114.663 110.205C106.128 119.623 94.3994 125.535 81.752 126.795C69.1046 128.054 56.4403 124.57 46.216 117.02C35.9916 109.47 28.9362 98.3913 26.4184 85.9332C23.9007 73.4751 26.1 60.5259 32.5899 49.5978C39.0797 38.6696 49.3974 30.5416 61.5412 26.7906C73.685 23.0395 86.7892 23.9328 98.3116 29.2972C109.834 34.6616 118.953 44.1147 123.9 55.8225C126.58 62.15 127.955 68.9534 127.942 75.825V75.825Z" fill="#4D4C78"/>
<path d="M91.6256 111H57.7744C55.7397 110.998 53.7891 110.191 52.3504 108.757C50.9117 107.323 50.1024 105.379 50.1 103.351V71.5578C50.1024 69.5291 50.9114 67.5841 52.3499 66.1488C53.7883 64.7135 55.7389 63.9048 57.7744 63.9H91.6256C93.661 63.9048 95.6116 64.7135 97.0501 66.1488C98.4885 67.5841 99.2976 69.5291 99.3 71.5578V103.351C99.2976 105.379 98.4882 107.323 97.0495 108.757C95.6108 110.191 93.6602 110.998 91.6256 111Z" fill="#67BAEB"/>
<path d="M99.3 86.2753V80.5768C98.4198 80.8596 97.5 81.0029 96.5747 81.0013C94.726 81.0059 92.9244 80.4236 91.4342 79.3396C90.6003 78.7349 89.8943 77.974 89.3561 77.1C89.2285 77.2987 89.0826 77.4973 88.9368 77.687C88.1284 78.6994 87.1045 79.5227 85.9381 80.0982C84.6944 80.6972 83.3288 81.0061 81.946 81.0013C79.6838 81.0131 77.5013 80.1739 75.8393 78.6533C75.4182 78.257 75.0367 77.8216 74.7 77.3528C74.3632 77.8216 73.9817 78.257 73.5607 78.6533C71.8996 80.1755 69.7165 81.0149 67.454 81.0013C66.0741 81.006 64.7114 80.697 63.4709 80.0982C62.3003 79.5254 61.2729 78.7017 60.4631 77.687C60.3173 77.4973 60.1806 77.2987 60.0439 77.1C59.5063 77.9716 58.8037 78.7321 57.9749 79.3396C56.4806 80.4226 54.6765 81.0047 52.8252 81.0013C51.8999 81.0029 50.9802 80.8596 50.1 80.5768V86.2753C50.9802 86.5581 51.8999 86.7013 52.8252 86.6997C54.6765 86.7032 56.4806 86.121 57.9749 85.0381C58.8037 84.4306 59.5063 83.6701 60.0439 82.7984C60.1806 82.9971 60.3173 83.1958 60.4631 83.3854C61.2703 84.4028 62.2983 85.2269 63.4709 85.7967C64.7114 86.3955 66.0741 86.7044 67.454 86.6997C69.7599 86.6997 71.9292 85.8689 73.5607 84.3517C73.9817 83.9555 74.3632 83.52 74.7 83.0513C75.0367 83.52 75.4182 83.9555 75.8393 84.3517C77.4988 85.8763 79.6829 86.7161 81.946 86.6997C83.3288 86.7045 84.6944 86.3956 85.9381 85.7967C87.1065 85.2242 88.131 84.4004 88.9368 83.3854C89.0826 83.1958 89.2285 82.9971 89.3561 82.7984C89.8943 83.6724 90.6003 84.4333 91.4342 85.0381C92.9244 86.122 94.726 86.7044 96.5747 86.6997C97.5 86.7013 98.4198 86.5581 99.3 86.2753V86.2753Z" fill="#46A1F8"/>
<path d="M99.3 86.2753V80.5768C98.4198 80.8596 97.5 81.0029 96.5747 81.0013C94.726 81.0059 92.9244 80.4236 91.4342 79.3396C90.6003 78.7349 89.8943 77.974 89.3561 77.1C89.2285 77.2987 89.0826 77.4973 88.9368 77.687C88.1284 78.6994 87.1045 79.5227 85.9381 80.0982C84.6944 80.6972 83.3288 81.0061 81.946 81.0013C79.6838 81.0131 77.5013 80.1739 75.8393 78.6533C75.4182 78.257 75.0367 77.8216 74.7 77.3528C74.3632 77.8216 73.9817 78.257 73.5607 78.6533C71.8996 80.1755 69.7165 81.0149 67.454 81.0013C66.0741 81.006 64.7114 80.697 63.4709 80.0982C62.3003 79.5254 61.2729 78.7017 60.4631 77.687C60.3173 77.4973 60.1806 77.2987 60.0439 77.1C59.5063 77.9716 58.8037 78.7321 57.9749 79.3396C56.4806 80.4226 54.6765 81.0047 52.8252 81.0013C51.8999 81.0029 50.9802 80.8596 50.1 80.5768V86.2753C50.9802 86.5581 51.8999 86.7013 52.8252 86.6997C54.6765 86.7032 56.4806 86.121 57.9749 85.0381C58.8037 84.4306 59.5063 83.6701 60.0439 82.7984C60.1806 82.9971 60.3173 83.1958 60.4631 83.3854C61.2703 84.4028 62.2983 85.2269 63.4709 85.7967C64.7114 86.3955 66.0741 86.7044 67.454 86.6997C69.7599 86.6997 71.9292 85.8689 73.5607 84.3517C73.9817 83.9555 74.3632 83.52 74.7 83.0513C75.0367 83.52 75.4182 83.9555 75.8393 84.3517C77.4988 85.8763 79.6829 86.7161 81.946 86.6997C83.3288 86.7045 84.6944 86.3956 85.9381 85.7967C87.1065 85.2242 88.131 84.4004 88.9368 83.3854C89.0826 83.1958 89.2285 82.9971 89.3561 82.7984C89.8943 83.6724 90.6003 84.4333 91.4342 85.0381C92.9244 86.122 94.726 86.7044 96.5747 86.6997C97.5 86.7013 98.4198 86.5581 99.3 86.2753V86.2753Z" fill="#46A1F8"/>
<path d="M99.3 82.662V76.7855C97.9834 77.2223 96.5843 77.3345 95.2171 77.1127C93.85 76.891 92.5536 76.3416 91.4342 75.5096C90.6003 74.886 89.8943 74.1013 89.3561 73.2C89.2285 73.4048 89.0826 73.6097 88.9368 73.8053C88.1306 74.8493 87.106 75.6958 85.9381 76.2826C84.3031 77.0994 82.4652 77.3941 80.6639 77.1283C78.8626 76.8626 77.1814 76.0486 75.8393 74.7925C75.4163 74.3892 75.0345 73.943 74.7 73.4607C74.3654 73.943 73.9837 74.3892 73.5607 74.7925C72.2206 76.0489 70.5409 76.8633 68.7409 77.1291C66.9409 77.3949 65.1043 77.0999 63.4709 76.2826C62.2989 75.6983 61.2708 74.8515 60.4631 73.8053C60.3173 73.6097 60.1806 73.4048 60.0439 73.2C59.5063 74.0988 58.8037 74.8831 57.9749 75.5096C56.8537 76.3417 55.5558 76.8911 54.1872 77.1128C52.8186 77.3346 51.4181 77.2224 50.1 76.7855V82.662C50.9802 82.9537 51.8999 83.1014 52.8252 83.0998C54.6765 83.1033 56.4806 82.5029 57.9749 81.3861C58.8037 80.7596 59.5063 79.9754 60.0439 79.0765C60.1806 79.2814 60.3173 79.4863 60.4631 79.6819C61.2729 80.7283 62.3003 81.5777 63.4709 82.1684C64.7114 82.786 66.0741 83.1046 67.454 83.0998C69.7184 83.115 71.903 82.2455 73.5607 80.669C73.9837 80.2658 74.3654 79.8196 74.7 79.3373C75.0345 79.8196 75.4163 80.2658 75.8393 80.669C77.4979 82.2438 79.6819 83.1131 81.946 83.0998C83.3288 83.1047 84.6944 82.7861 85.9381 82.1684C87.1045 81.575 88.1284 80.726 88.9368 79.6819C89.0826 79.4863 89.2285 79.2814 89.3561 79.0765C89.8943 79.9778 90.6003 80.7625 91.4342 81.3861C92.9244 82.504 94.726 83.1046 96.5747 83.0998C97.5 83.1014 98.4198 82.9537 99.3 82.662V82.662Z" fill="#46A1F8"/>
<path d="M99.3 82.662V76.7855C97.9834 77.2223 96.5843 77.3345 95.2171 77.1127C93.85 76.891 92.5536 76.3416 91.4342 75.5096C90.6003 74.886 89.8943 74.1013 89.3561 73.2C89.2285 73.4048 89.0826 73.6097 88.9368 73.8053C88.1306 74.8493 87.106 75.6958 85.9381 76.2826C84.3031 77.0994 82.4652 77.3941 80.6639 77.1283C78.8626 76.8626 77.1814 76.0486 75.8393 74.7925C75.4163 74.3892 75.0345 73.943 74.7 73.4607C74.3654 73.943 73.9837 74.3892 73.5607 74.7925C72.2206 76.0489 70.5409 76.8633 68.7409 77.1291C66.9409 77.3949 65.1043 77.0999 63.4709 76.2826C62.2989 75.6983 61.2708 74.8515 60.4631 73.8053C60.3173 73.6097 60.1806 73.4048 60.0439 73.2C59.5063 74.0988 58.8037 74.8831 57.9749 75.5096C56.8537 76.3417 55.5558 76.8911 54.1872 77.1128C52.8186 77.3346 51.4181 77.2224 50.1 76.7855V82.662C50.9802 82.9537 51.8999 83.1014 52.8252 83.0998C54.6765 83.1033 56.4806 82.5029 57.9749 81.3861C58.8037 80.7596 59.5063 79.9754 60.0439 79.0765C60.1806 79.2814 60.3173 79.4863 60.4631 79.6819C61.2729 80.7283 62.3003 81.5777 63.4709 82.1684C64.7114 82.786 66.0741 83.1046 67.454 83.0998C69.7184 83.115 71.903 82.2455 73.5607 80.669C73.9837 80.2658 74.3654 79.8196 74.7 79.3373C75.0345 79.8196 75.4163 80.2658 75.8393 80.669C77.4979 82.2438 79.6819 83.1131 81.946 83.0998C83.3288 83.1047 84.6944 82.7861 85.9381 82.1684C87.1045 81.575 88.1284 80.726 88.9368 79.6819C89.0826 79.4863 89.2285 79.2814 89.3561 79.0765C89.8943 79.9778 90.6003 80.7625 91.4342 81.3861C92.9244 82.504 94.726 83.1046 96.5747 83.0998C97.5 83.1014 98.4198 82.9537 99.3 82.662V82.662Z" fill="#2970EF"/>
<path d="M53.0127 81.2999C51.5309 81.3046 50.0729 80.9255 48.7799 80.1991C47.5747 79.5221 46.561 78.5484 45.8341 77.3697C45.1755 76.2973 44.7896 75.0789 44.7102 73.8216C44.641 72.4921 44.9224 71.1679 45.526 69.9824L55.4509 50.3315C56.3254 48.6141 57.6715 47.1839 59.3302 46.2102C61.0139 45.216 62.9329 44.6943 64.8863 44.7H66.971C67.1876 44.6979 67.4017 44.7461 67.5967 44.8407C67.7917 44.9354 67.9622 45.0741 68.0949 45.2459C68.2293 45.4187 68.3227 45.6198 68.3683 45.8341C68.4138 46.0485 68.4102 46.2704 68.3578 46.4832L61.0976 75.2409C60.6342 76.9979 59.589 78.5443 58.1338 79.6259C56.6458 80.7129 54.853 81.2989 53.0127 81.2999V81.2999Z" fill="#F4C23F"/>
<path d="M67.4957 81.2998C66.1117 81.3059 64.7452 80.9913 63.5043 80.3809C62.3298 79.8101 61.2995 78.9829 60.4902 77.9609C58.974 76.0049 58.4443 73.5395 59.0379 71.1832L65.5046 45.7826C65.5837 45.4732 65.764 45.1988 66.017 45.0028C66.2701 44.8067 66.5814 44.7002 66.902 44.7H74.7569C74.946 44.6988 75.1335 44.7348 75.3085 44.8061C75.4835 44.8773 75.6427 44.9823 75.7768 45.1151C75.9109 45.2479 76.0174 45.4057 76.09 45.5796C76.1627 45.7535 76.2001 45.94 76.2001 46.1283V73.0937C76.2001 75.3044 75.2776 77.3696 73.6152 78.9253C71.9541 80.4652 69.7649 81.3147 67.4957 81.2998V81.2998Z" fill="#F4C23F"/>
<path d="M81.9016 81.2998C79.6334 81.3129 77.4456 80.4637 75.784 78.9253C74.1222 77.3696 73.2 75.3044 73.2 73.0937V46.1283C73.1999 45.94 73.2373 45.7535 73.3099 45.5796C73.3826 45.4057 73.489 45.2479 73.623 45.1151C73.7571 44.9823 73.9162 44.8773 74.0912 44.8061C74.2662 44.7348 74.4536 44.6988 74.6426 44.7H82.4951C82.816 44.6986 83.128 44.8046 83.3813 45.0008C83.6346 45.1971 83.8145 45.4724 83.8921 45.7826L90.3567 71.1832C90.9594 73.5395 90.4298 76.005 88.9049 77.961C88.0973 78.9808 87.0709 79.8077 85.9009 80.3809C84.6571 80.9915 83.2881 81.306 81.9016 81.2998Z" fill="#F4C23F"/>
<path d="M96.5829 81.2999C94.7221 81.3001 92.9094 80.7139 91.4067 79.6259C89.9278 78.5495 88.868 77.0009 88.4056 75.2409L81.0452 46.4831C80.9904 46.2715 80.9854 46.0502 81.0304 45.8363C81.0755 45.6224 81.1695 45.4216 81.3051 45.2494C81.4407 45.0772 81.6144 44.9381 81.8128 44.8428C82.0112 44.7476 82.2289 44.6987 82.4494 44.7H84.5602C86.5382 44.6943 88.4813 45.2159 90.1861 46.2102C91.8661 47.1862 93.2316 48.6155 94.1233 50.3315L104.164 69.9824C104.775 71.1679 105.06 72.4921 104.99 73.8216C104.913 75.0782 104.525 76.2968 103.861 77.3697C103.122 78.5464 102.096 79.5195 100.878 80.1991C99.5654 80.9255 98.0862 81.3046 96.5829 81.2999Z" fill="#F4C23F"/>
<path d="M74.7 91.2C76.7687 91.2 78.7527 92.0257 80.2154 93.4955C81.6782 94.9654 82.5 96.9589 82.5 99.0376V109.5H66.9V99.0467C66.8988 98.0167 67.0997 96.9965 67.4912 96.0446C67.8826 95.0926 68.457 94.2275 69.1814 93.4988C69.9058 92.77 70.7661 92.1919 71.713 91.7974C72.6599 91.403 73.6749 91.2 74.7 91.2V91.2Z" fill="white"/>
<path d="M76.6501 90C75.2905 89.9988 73.9441 90.2664 72.6879 90.7876C71.4316 91.3087 70.2902 92.0731 69.3289 93.037C68.3675 94.0009 67.6052 95.1454 67.0855 96.4051C66.5658 97.6647 66.2989 99.0148 66.3001 100.378V111H85.2149C85.6884 111 86.1424 110.811 86.4772 110.476C86.812 110.14 87 109.685 87 109.21V100.378C87.0012 99.0148 86.7343 97.6647 86.2146 96.4051C85.6949 95.1454 84.9326 94.0009 83.9713 93.037C83.0099 92.0731 81.8685 91.3087 80.6122 90.7876C79.356 90.2664 78.0096 89.9988 76.6501 90V90Z" fill="#46A1F8"/>
<path d="M82.5566 111H66.8434C66.6543 111.001 66.4668 110.965 66.2918 110.895C66.1167 110.824 65.9575 110.719 65.8233 110.587C65.6892 110.456 65.5827 110.299 65.5101 110.126C65.4374 109.953 65.4 109.768 65.4 109.581V99.2027C65.4 96.762 66.3798 94.4213 68.1239 92.6954C69.868 90.9696 72.2335 90 74.7 90C77.1665 90 79.532 90.9696 81.2761 92.6954C83.0202 94.4213 84 96.762 84 99.2027V109.581C84 109.768 83.9626 109.953 83.89 110.126C83.8173 110.299 83.7109 110.456 83.5767 110.587C83.4425 110.719 83.2834 110.824 83.1083 110.895C82.9332 110.965 82.7457 111.001 82.5566 111V111Z" fill="#2E2C50"/>
<path d="M71.2365 109.581V99.2042C71.2367 97.2643 71.8617 95.374 73.0224 93.8029C74.183 92.2317 75.82 91.0599 77.7 90.4545C76.2906 90.0034 74.7922 89.8859 73.3276 90.1118C71.8629 90.3377 70.4737 90.9005 69.2737 91.7541C68.0737 92.6078 67.0971 93.7279 66.4237 95.0229C65.7504 96.3178 65.3996 97.7507 65.4 99.2042V109.581C65.4 109.768 65.4378 109.953 65.5111 110.126C65.5844 110.299 65.6919 110.456 65.8273 110.588C65.9627 110.719 66.1233 110.824 66.3 110.895C66.4767 110.965 66.666 111.001 66.8568 111H72.6933C72.5025 111.001 72.3132 110.965 72.1365 110.895C71.9598 110.824 71.7992 110.719 71.6638 110.588C71.5284 110.456 71.4209 110.299 71.3476 110.126C71.2743 109.953 71.2365 109.768 71.2365 109.581Z" fill="#1D1F2D"/>
<path d="M90.698 51.8208L90.6898 51.8248C88.869 52.7287 88.1257 54.9375 89.0295 56.7583L91.8614 62.4631C92.7653 64.284 94.9741 65.0273 96.7949 64.1234L96.803 64.1194C98.6239 63.2155 99.3672 61.0067 98.4633 59.1859L95.6314 53.4811C94.7276 51.6603 92.5188 50.9169 90.698 51.8208Z" fill="#FAD564"/>
<path d="M85.6679 64.5842C85.2964 63.037 83.7411 62.0839 82.1939 62.4554C80.6468 62.8268 79.6937 64.3821 80.0651 65.9293L80.8979 69.3979C81.2693 70.945 82.8246 71.8982 84.3718 71.5267C85.9189 71.1553 86.8721 69.5999 86.5006 68.0528L85.6679 64.5842Z" fill="#FAD564"/>
<path d="M73.2 54.4744C73.2 52.8869 71.924 51.6 70.35 51.6C68.776 51.6 67.5 52.8869 67.5 54.4744V58.6255C67.5 60.213 68.776 61.5 70.35 61.5C71.924 61.5 73.2 60.213 73.2 58.6255V54.4744Z" fill="#FAD564"/>
<path d="M104.425 70.5192C103.741 72.1931 102.502 73.5807 100.917 74.4494C99.4596 75.254 97.8035 75.6266 96.1423 75.5235C94.4812 75.4204 92.8838 74.8458 91.537 73.8671H91.5189C90.7143 73.2659 90.1427 72.4044 89.901 71.4289L84.4659 49.8948C84.3732 49.5274 84.3622 49.1442 84.4335 48.7721C84.5048 48.4 84.6567 48.048 84.8785 47.741C85.1003 47.434 85.3866 47.1794 85.7173 46.9951C86.048 46.8108 86.4151 46.7012 86.7926 46.6742C88.3923 46.565 90.5373 46.8652 92.9367 48.3937C92.1942 47.5261 91.3127 46.7882 90.3282 46.2102C88.6399 45.2159 86.7156 44.6943 84.7567 44.7H64.9428C62.984 44.6943 61.0596 45.2159 59.3713 46.2102C57.708 47.1839 56.3581 48.6141 55.4812 50.3315L45.5289 69.9824C45.3397 70.3475 45.1816 70.7279 45.0562 71.1196V71.1469C45.037 71.1909 45.0218 71.2366 45.0108 71.2834L45.0108 71.2833C44.9927 71.3469 44.9927 71.3469 44.9745 71.4106L44.9744 71.4107C44.7559 72.1946 44.6669 73.009 44.7109 73.8216C44.7904 75.0789 45.1774 76.2973 45.8379 77.3697C46.5668 78.5484 47.5833 79.5221 48.7918 80.1991C50.0884 80.9255 51.5504 81.3046 53.0363 81.2999C54.8818 81.2989 56.6795 80.7129 58.1716 79.6259C58.9968 79.0089 59.697 78.2401 60.2348 77.3606L60.6528 77.952C61.4582 78.974 62.4834 79.8011 63.6522 80.3719C65.281 81.1704 67.1125 81.4585 68.9074 81.1989C70.7024 80.9392 72.3774 80.1437 73.7136 78.9163C74.1355 78.5224 74.5162 78.0865 74.8498 77.6153C75.1834 78.0865 75.564 78.5224 75.9859 78.9163C77.3242 80.1434 79.0007 80.9385 80.797 81.1981C82.5932 81.4578 84.426 81.1699 86.0564 80.3719C87.2211 79.7987 88.2428 78.9718 89.0467 77.952C89.1921 77.7518 89.3375 77.5608 89.4648 77.3606C90.0039 78.2392 90.7076 79.0054 91.537 79.6168C92.8829 80.5983 94.4812 81.1738 96.1433 81.2753C97.8053 81.3769 99.4617 81.0003 100.917 80.19C102.123 79.5104 103.139 78.5373 103.871 77.3606C104.529 76.2877 104.913 75.0691 104.989 73.8125C105.05 72.6863 104.858 71.5606 104.425 70.5192V70.5192ZM59.2077 71.1742L59.1532 71.3471C58.4442 73.485 56.6446 75.0953 54.436 75.4865C53.9746 75.5727 53.5031 75.5911 53.0363 75.5411C51.5512 75.549 50.0891 75.173 48.7918 74.4494C48.5105 74.2905 48.2375 74.1174 47.9738 73.9308C47.5841 73.6477 47.3073 73.2356 47.1925 72.7675C47.0777 72.2995 47.1323 71.8059 47.3466 71.3743V71.3562L57.3081 51.7143C58.1821 49.9948 59.5327 48.5639 61.1982 47.5931L61.2345 47.5658C62.9614 46.5559 65.0428 48.1389 64.552 50.0676L59.2077 71.1742ZM69.0692 75.4319C68.591 75.5051 68.1078 75.5416 67.6241 75.5411C66.2475 75.5504 64.8877 75.2389 63.6522 74.6313L63.6158 74.6131C62.8332 74.2242 62.2072 73.5788 61.8418 72.7844C61.4764 71.99 61.3936 71.0943 61.6072 70.2462C63.0705 64.3964 66.6879 49.8311 66.6879 49.8311C66.9585 48.7592 67.578 47.808 68.4486 47.1276C69.3192 46.4472 70.3914 46.0764 71.4959 46.0737V46.0737C71.7486 46.0737 71.9987 46.1237 72.2319 46.2207C72.4652 46.3178 72.677 46.46 72.8552 46.6392C73.0334 46.8184 73.1745 47.0311 73.2703 47.2651C73.3662 47.499 73.4149 47.7496 73.4137 48.0025C73.4137 52.6332 73.4228 64.5602 73.4228 70.2735C73.4303 71.5116 72.9958 72.7116 72.1976 73.6574C71.3994 74.6031 70.2899 75.2325 69.0692 75.4319V75.4319ZM82.0755 75.5411C79.8188 75.5575 77.6408 74.7115 75.9859 73.1757H75.9768C75.7433 72.9546 75.5575 72.6879 75.4309 72.3922C75.3043 72.0965 75.2395 71.778 75.2406 71.4562V51.7871C75.0588 47.7022 77.5946 46.565 79.4397 46.3467C79.926 46.2878 80.417 46.4088 80.8204 46.6869C81.2238 46.965 81.5118 47.3811 81.6301 47.8569L87.5743 71.338C87.7369 71.9745 87.6767 72.6476 87.4039 73.2452C87.131 73.8427 86.6619 74.3287 86.0746 74.6222H86.0564C84.8185 75.2331 83.4557 75.5477 82.0755 75.5411V75.5411Z" fill="#F4A93F"/>
<path d="M99.3 103.375V90.163C98.7982 90.0572 98.2868 90.0026 97.7738 90V90C95.8704 90.0024 94.0457 90.7534 92.7006 92.0879C91.3555 93.4225 90.6 95.2316 90.6 97.1177V109.062C90.602 109.717 90.6943 110.369 90.8741 111H91.6052C93.6453 110.998 95.601 110.194 97.0436 108.764C98.4861 107.335 99.2975 105.397 99.3 103.375Z" fill="#83D0FB"/>
<path d="M61.9999 59.4712C62.2025 58.7201 61.7599 57.9474 61.0112 57.7454C60.2625 57.5434 59.4912 57.9885 59.2885 58.7397L58.2783 62.4837C58.0757 63.2349 58.5183 64.0075 59.267 64.2096C60.0157 64.4116 60.787 63.9664 60.9896 63.2153L61.9999 59.4712Z" fill="#FAD564"/>
<path d="M63.5428 77.1001C62.4506 77.0952 61.3618 77.2243 60.3 77.4844C60.3991 77.6399 60.5072 77.7863 60.6153 77.9419C61.4135 78.9698 62.4295 79.8017 63.5878 80.3757C64.8116 80.9897 66.1592 81.3061 67.5241 81.2999C68.7539 81.2994 69.9707 81.0441 71.1001 80.5496C70.5146 78.6007 67.3529 77.1001 63.5428 77.1001Z" fill="#F8881B"/>
<path d="M57.1349 77.91C58.4108 77.9109 59.6638 77.5718 60.7649 76.9275C59.6399 75.6825 57.7124 74.565 55.3874 73.935C53.6849 73.47 52.0274 73.35 50.6324 73.515C50.7833 73.9167 50.9716 74.3035 51.1949 74.67C51.7964 75.6417 52.6352 76.4443 53.6324 77.0025C54.7024 77.6013 55.9088 77.9139 57.1349 77.91V77.91Z" fill="#F8881B"/>
<path d="M98.19 24.6075C97.3125 24.2325 96.42 23.8875 95.5275 23.5575C94.5832 24.6628 93.7656 25.8703 93.09 27.1575C94.26 27.5475 95.415 27.99 96.555 28.47C107.444 33.0928 116.417 41.3134 121.972 51.7575C122.711 51.1991 123.41 50.5902 124.065 49.935C124.44 49.5675 124.792 49.1775 125.13 48.78C119.086 37.9522 109.607 29.4468 98.19 24.6075V24.6075Z" fill="#4D4C78"/>
<path d="M110.318 52.995C119.6 52.995 127.125 45.47 127.125 36.1875C127.125 26.905 119.6 19.38 110.318 19.38C101.035 19.38 93.51 26.905 93.51 36.1875C93.51 45.47 101.035 52.995 110.318 52.995Z" fill="#F8881B"/>
<path d="M110.318 51.0375C118.519 51.0375 125.168 44.389 125.168 36.1875C125.168 27.9861 118.519 21.3375 110.318 21.3375C102.116 21.3375 95.4675 27.9861 95.4675 36.1875C95.4675 44.389 102.116 51.0375 110.318 51.0375Z" fill="#F08000"/>
<path d="M110.317 49.365C117.595 49.365 123.495 43.4652 123.495 36.1875C123.495 28.9098 117.595 23.01 110.317 23.01C103.04 23.01 97.1399 28.9098 97.1399 36.1875C97.1399 43.4652 103.04 49.365 110.317 49.365Z" fill="#F4C23F"/>
<path d="M122.265 33.435C122.58 33.435 122.888 33.42 123.195 33.3975C122.584 30.5739 121.061 28.0296 118.862 26.1566C116.662 24.2836 113.907 23.1859 111.023 23.0325C111.243 25.863 112.524 28.5062 114.608 30.4344C116.691 32.3627 119.426 33.4341 122.265 33.435V33.435Z" fill="#FAD564"/>
<path d="M109.785 48.5325C109.27 48.5325 108.776 48.3278 108.411 47.9635C108.047 47.5993 107.843 47.1052 107.843 46.59V44.25H104.25C103.735 44.25 103.241 44.0453 102.876 43.681C102.512 43.3168 102.308 42.8227 102.308 42.3075C102.308 41.7923 102.512 41.2982 102.876 40.9339C103.241 40.5696 103.735 40.365 104.25 40.365H112.373C112.511 40.377 112.651 40.3601 112.783 40.3152C112.915 40.2703 113.036 40.1986 113.139 40.1044C113.241 40.0103 113.323 39.8958 113.379 39.7683C113.435 39.6408 113.464 39.503 113.464 39.3637C113.464 39.2244 113.435 39.0867 113.379 38.9592C113.323 38.8317 113.241 38.7172 113.139 38.6231C113.036 38.5289 112.915 38.4571 112.783 38.4123C112.651 38.3674 112.511 38.3505 112.373 38.3625H107.19C106.533 38.3882 105.878 38.2811 105.264 38.0476C104.649 37.814 104.088 37.4588 103.615 37.0032C103.141 36.5476 102.764 36.0011 102.506 35.3963C102.249 34.7915 102.116 34.141 102.116 33.4837C102.116 32.8265 102.249 32.1759 102.506 31.5712C102.764 30.9664 103.141 30.4199 103.615 29.9643C104.088 29.5087 104.649 29.1535 105.264 28.9199C105.878 28.6864 106.533 28.5792 107.19 28.605H107.843V27.0525C107.843 26.5373 108.047 26.0432 108.411 25.6789C108.776 25.3146 109.27 25.11 109.785 25.11C110.3 25.11 110.794 25.3146 111.159 25.6789C111.523 26.0432 111.728 26.5373 111.728 27.0525V28.605H115.32C115.585 28.5885 115.85 28.6264 116.1 28.7164C116.349 28.8064 116.578 28.9465 116.771 29.1282C116.964 29.3098 117.118 29.5291 117.224 29.7726C117.329 30.016 117.383 30.2785 117.383 30.5437C117.383 30.809 117.329 31.0714 117.224 31.3149C117.118 31.5583 116.964 31.7777 116.771 31.9593C116.578 32.1409 116.349 32.2811 116.1 32.3711C115.85 32.461 115.585 32.499 115.32 32.4825H107.19C107.051 32.4705 106.912 32.4874 106.78 32.5323C106.648 32.5771 106.527 32.6489 106.424 32.7431C106.321 32.8372 106.239 32.9517 106.183 33.0792C106.127 33.2067 106.098 33.3444 106.098 33.4837C106.098 33.623 106.127 33.7608 106.183 33.8883C106.239 34.0158 106.321 34.1303 106.424 34.2244C106.527 34.3186 106.648 34.3903 106.78 34.4352C106.912 34.4801 107.051 34.497 107.19 34.485H112.373C113.667 34.485 114.909 34.9994 115.825 35.915C116.741 36.8307 117.255 38.0726 117.255 39.3675C117.255 40.6624 116.741 41.9043 115.825 42.8199C114.909 43.7356 113.667 44.25 112.373 44.25H111.728V46.59C111.728 46.8451 111.677 47.0977 111.58 47.3334C111.482 47.569 111.339 47.7832 111.159 47.9635C110.978 48.1439 110.764 48.287 110.528 48.3846C110.293 48.4822 110.04 48.5325 109.785 48.5325Z" fill="#F4A93F"/>
<path d="M112.74 34.2075H107.55C107.363 34.2214 107.175 34.1965 106.997 34.1344C106.82 34.0723 106.658 33.9743 106.52 33.8465C106.382 33.7188 106.273 33.564 106.198 33.3919C106.123 33.2197 106.084 33.034 106.084 32.8462C106.084 32.6584 106.123 32.4727 106.198 32.3006C106.273 32.1284 106.382 31.9737 106.52 31.8459C106.658 31.7181 106.82 31.6201 106.997 31.558C107.175 31.4959 107.363 31.4711 107.55 31.485H115.68C115.896 31.4999 116.114 31.4701 116.318 31.3976C116.523 31.325 116.71 31.2111 116.869 31.0631C117.027 30.915 117.154 30.7359 117.24 30.5369C117.327 30.3379 117.371 30.1232 117.371 29.9062C117.371 29.6892 117.327 29.4746 117.24 29.2755C117.154 29.0765 117.027 28.8974 116.869 28.7494C116.71 28.6013 116.523 28.4874 116.318 28.4149C116.114 28.3423 115.896 28.3125 115.68 28.3275H111.727V26.4225C111.727 26.0028 111.561 25.6002 111.264 25.3035C110.967 25.0067 110.565 24.84 110.145 24.84C109.725 24.84 109.323 25.0067 109.026 25.3035C108.729 25.6002 108.562 26.0028 108.562 26.4225V28.3275H107.55C106.941 28.3027 106.333 28.4012 105.763 28.6171C105.194 28.833 104.673 29.1618 104.234 29.5839C103.794 30.0059 103.444 30.5125 103.205 31.0731C102.966 31.6337 102.843 32.2368 102.843 32.8462C102.843 33.4556 102.966 34.0587 103.205 34.6194C103.444 35.18 103.794 35.6865 104.234 36.1086C104.673 36.5306 105.194 36.8595 105.763 37.0754C106.333 37.2913 106.941 37.3898 107.55 37.365H112.74C113.102 37.365 113.449 37.5088 113.705 37.7648C113.961 38.0208 114.105 38.3679 114.105 38.73C114.105 39.092 113.961 39.4392 113.705 39.6952C113.449 39.9512 113.102 40.095 112.74 40.095H104.61C104.393 40.08 104.176 40.1098 103.972 40.1824C103.767 40.2549 103.58 40.3688 103.421 40.5169C103.263 40.6649 103.136 40.844 103.05 41.043C102.963 41.2421 102.919 41.4567 102.919 41.6737C102.919 41.8907 102.963 42.1054 103.05 42.3044C103.136 42.5034 103.263 42.6825 103.421 42.8306C103.58 42.9786 103.767 43.0925 103.972 43.1651C104.176 43.2376 104.393 43.2674 104.61 43.2525H108.562V45.9525C108.562 46.3722 108.729 46.7747 109.026 47.0715C109.323 47.3682 109.725 47.535 110.145 47.535C110.565 47.535 110.967 47.3682 111.264 47.0715C111.561 46.7747 111.727 46.3722 111.727 45.9525V43.2525H112.74C113.939 43.2525 115.09 42.776 115.938 41.9279C116.786 41.0797 117.262 39.9294 117.262 38.73C117.262 37.5305 116.786 36.3802 115.938 35.5321C115.09 34.6839 113.939 34.2075 112.74 34.2075V34.2075Z" fill="#CF6B00"/>
</svg>
