<svg width="150" height="150" viewBox="0 0 150 150" fill="none" xmlns="http://www.w3.org/2000/svg">
<path d="M77.955 121.02C105.674 121.02 128.145 98.5492 128.145 70.83C128.145 43.1108 105.674 20.64 77.955 20.64C50.2358 20.64 27.765 43.1108 27.765 70.83C27.765 98.5492 50.2358 121.02 77.955 121.02Z" fill="#67BAEB"/>
<path d="M127.403 62.2125C123.953 42.3075 108.788 26.4225 89.2575 21.9225C88.0275 25.3201 87.4006 28.9066 87.4051 32.52C87.4051 49.65 101.288 63.5325 118.418 63.5325C121.461 63.5376 124.489 63.0928 127.403 62.2125V62.2125Z" fill="#83D0FB"/>
<path d="M100.913 104.258C68.97 104.258 43.0725 78.3675 43.0725 46.425C43.0727 42.0333 43.5684 37.6556 44.55 33.375C34.2525 42.5625 27.765 55.9425 27.765 70.83C27.765 98.55 50.235 121.02 77.955 121.02C93.9525 121.02 108.195 113.535 117.39 101.88C112.04 103.46 106.491 104.261 100.913 104.258V104.258Z" fill="#46A1F8"/>
<path d="M106.343 50.4675L106.163 49.68C111.225 48.6825 116.363 47.415 121.508 45.885C120.783 44.62 120.005 43.39 119.175 42.195C114.443 43.56 109.725 44.7075 105.075 45.615C103.725 41.0775 102.03 36.9225 100.013 33.21C97.665 28.89 94.9725 25.3425 91.9875 22.635C82.8176 19.985 73.0849 19.985 63.915 22.635C60.93 25.3425 58.2375 28.89 55.89 33.21C53.9025 36.87 52.23 40.965 50.895 45.4275C46.2432 44.4123 41.6512 43.1403 37.14 41.6175C36.3 42.7975 35.51 44.0075 34.77 45.2475C39.6901 46.9533 44.7063 48.3682 49.7925 49.485C49.7175 49.815 49.635 50.1375 49.56 50.4675C48.225 56.28 47.4675 62.4 47.295 68.7H27.81C27.78 69.405 27.765 70.1175 27.765 70.83C27.765 71.5425 27.78 72.21 27.81 72.9H47.2725C47.37 79.5675 48.12 86.04 49.515 92.175C44.5112 93.2848 39.5755 94.6821 34.7325 96.36C35.4725 97.605 36.2625 98.815 37.1025 99.99C41.5137 98.4991 46.0029 97.2498 50.55 96.2475C51.9375 101.167 53.73 105.66 55.89 109.65C57.765 113.092 59.8575 116.047 62.145 118.477C65.3757 119.551 68.7082 120.29 72.09 120.682C70.6713 120.043 69.3364 119.232 68.115 118.267C64.9425 115.792 62.07 112.222 59.58 107.64C57.6075 104.01 55.965 99.9075 54.675 95.4075L56.505 95.0775C62.9009 93.9976 69.3694 93.4034 75.855 93.3V120.975C76.5525 121.005 77.25 121.02 77.955 121.02C78.66 121.02 79.3575 121.005 80.055 120.975V93.3C86.7565 93.4175 93.4411 94.014 100.058 95.085L101.265 95.28C99.9675 99.8325 98.3175 103.98 96.3225 107.64C93.84 112.222 90.9675 115.792 87.795 118.267C86.5714 119.229 85.2369 120.039 83.82 120.682C87.1994 120.29 90.5294 119.551 93.7575 118.477C96.045 116.047 98.145 113.092 100.013 109.65C102.21 105.607 104.018 101.047 105.413 96.045C109.973 96.945 114.585 98.07 119.213 99.4125C120.045 98.22 120.818 96.9825 121.545 95.715C116.483 94.215 111.428 92.9625 106.44 91.965C107.805 85.8975 108.54 79.4925 108.638 72.9H128.1C128.123 72.21 128.138 71.5275 128.138 70.83C128.138 70.1325 128.123 69.405 128.093 68.7H108.608C108.435 62.4 107.678 56.28 106.343 50.4675ZM75.855 89.1C69.133 89.2007 62.4284 89.815 55.8 90.9375L53.6325 91.3275C52.29 85.4775 51.57 79.2825 51.4725 72.9H75.855V89.1ZM75.855 68.7H51.5025C51.6675 62.715 52.3875 56.91 53.655 51.4125C53.7375 51.045 53.8275 50.6775 53.9175 50.3175C54.54 50.4375 55.17 50.55 55.8 50.655C62.4287 51.7763 69.133 52.393 75.855 52.5V68.7ZM75.855 48.2925C69.3692 48.1928 62.9005 47.5986 56.505 46.515L55.0275 46.2525C56.265 42.2175 57.7875 38.52 59.58 35.2125C62.07 30.6375 64.9425 27.06 68.115 24.5925C70.605 22.65 73.2 21.465 75.855 21.06V48.2925ZM80.055 21.06C82.7025 21.465 85.2975 22.65 87.795 24.5925C90.9675 27.06 93.84 30.6375 96.3225 35.2125C98.1375 38.55 99.675 42.285 100.913 46.3725L100.058 46.5075C93.4416 47.5821 86.7567 48.1787 80.055 48.2925V21.06ZM80.055 52.5C86.9777 52.3773 93.8827 51.7608 100.718 50.655L102.023 50.445C102.098 50.7675 102.18 51.09 102.255 51.4125C103.515 56.91 104.235 62.715 104.408 68.7H80.055V52.5ZM102.308 91.2L100.718 90.9375C93.883 89.8304 86.9777 89.2163 80.055 89.1V72.9H104.43C104.34 79.2375 103.628 85.3875 102.308 91.2V91.2Z" fill="#4D4C78"/>
<path d="M59.58 107.64C57.6075 104.01 55.965 99.9074 54.675 95.4074L56.505 95.0774C60.15 94.4624 63.855 93.9975 67.59 93.6975C65.9352 92.5295 64.343 91.2753 62.82 89.9399C60.465 90.2099 58.125 90.5474 55.8 90.9374L53.6325 91.3274C52.5406 86.5066 51.8631 81.6013 51.6075 76.6649C49.944 73.9631 48.5066 71.1285 47.31 68.1899C47.31 68.3624 47.3025 68.5274 47.295 68.6999H27.81C27.78 69.4049 27.765 70.1174 27.765 70.8299C27.765 71.5424 27.78 72.2099 27.81 72.8999H47.2725C47.37 79.5674 48.12 86.0399 49.515 92.1749C44.5112 93.2847 39.5755 94.6821 34.7325 96.36C35.4725 97.605 36.2625 98.8149 37.1025 99.9899C41.5137 98.4991 46.0029 97.2498 50.55 96.2475C51.9375 101.167 53.73 105.66 55.89 109.65C57.765 113.092 59.8575 116.047 62.145 118.477C65.3757 119.551 68.7082 120.29 72.09 120.682C70.6713 120.043 69.3364 119.232 68.115 118.267C64.9425 115.792 62.07 112.222 59.58 107.64Z" fill="#323150"/>
<path d="M43.0726 46.425C43.0726 45.435 43.1026 44.46 43.1476 43.485C41.1376 42.9151 39.1276 42.2926 37.1401 41.6176C36.3001 42.7976 35.5101 44.0075 34.7701 45.2475C37.5151 46.2 40.2976 47.0625 43.0951 47.8275C43.0801 47.3625 43.0726 46.89 43.0726 46.425Z" fill="#323150"/>
<path d="M75.855 98.5649V120.975C76.5525 121.005 77.25 121.02 77.955 121.02C78.66 121.02 79.3574 121.005 80.0549 120.975V100.38C78.6225 99.8324 77.2275 99.2249 75.855 98.5649Z" fill="#323150"/>
<path d="M100.913 104.257C99.9451 104.257 98.9926 104.235 98.0401 104.19C97.5001 105.382 96.9301 106.537 96.3226 107.64C93.8401 112.222 90.9676 115.792 87.7951 118.267C86.5715 119.229 85.2369 120.039 83.8201 120.682C87.1994 120.29 90.5294 119.551 93.7576 118.477C96.0451 116.047 98.1451 113.092 100.013 109.65C100.964 107.89 101.825 106.082 102.593 104.235C102.038 104.25 101.475 104.257 100.913 104.257Z" fill="#323150"/>
<path d="M37.08 83.1899C34.5444 83.1884 32.0258 83.604 29.625 84.4199C33.6975 98.9249 44.1225 110.775 57.7125 116.767C59.3537 113.53 60.2068 109.95 60.2025 106.32C60.2025 93.5474 49.8525 83.1899 37.08 83.1899Z" fill="#2970EF"/>
<path d="M57.225 94.9575C56.4616 93.6062 55.5646 92.3349 54.5475 91.1625L53.6325 91.3275C53.52 90.8325 53.4075 90.3375 53.3025 89.8425C51.8318 88.3889 50.1719 87.1401 48.3675 86.13C48.6825 88.175 49.065 90.19 49.515 92.175C44.5112 93.2848 39.5755 94.6821 34.7325 96.36L34.8375 96.5325L34.8675 96.5775C34.9725 96.7575 35.085 96.9375 35.1975 97.1175C35.2045 97.1291 35.2096 97.1418 35.2125 97.155C35.4525 97.5375 35.6925 97.9125 35.94 98.2875C35.9497 98.3115 35.9623 98.3342 35.9775 98.355C36.0825 98.5125 36.1875 98.6625 36.285 98.82L36.375 98.9475L36.6675 99.375L36.7425 99.48L37.1025 99.99C41.5137 98.4992 46.0029 97.2498 50.55 96.2475C51.9375 101.168 53.73 105.66 55.89 109.65C56.7645 111.26 57.7285 112.82 58.7776 114.323C59.4642 112.467 59.9079 110.531 60.0975 108.563L59.5801 107.64C57.6076 104.01 55.965 99.9075 54.675 95.4075L56.5051 95.0775L57.225 94.9575Z" fill="#1D1F2D"/>
<path d="M37.0799 125.01C47.4021 125.01 55.7699 116.642 55.7699 106.32C55.7699 95.9978 47.4021 87.63 37.0799 87.63C26.7577 87.63 18.3899 95.9978 18.3899 106.32C18.3899 116.642 26.7577 125.01 37.0799 125.01Z" fill="#F8881B"/>
<path d="M37.0799 122.835C46.2009 122.835 53.5949 115.441 53.5949 106.32C53.5949 97.1991 46.2009 89.8051 37.0799 89.8051C27.959 89.8051 20.5649 97.1991 20.5649 106.32C20.5649 115.441 27.959 122.835 37.0799 122.835Z" fill="#F08000"/>
<path d="M37.08 120.975C45.1738 120.975 51.735 114.414 51.735 106.32C51.735 98.2262 45.1738 91.6649 37.08 91.6649C28.9863 91.6649 22.425 98.2262 22.425 106.32C22.425 114.414 28.9863 120.975 37.08 120.975Z" fill="#F4C23F"/>
<path d="M36.8925 91.6649C28.8825 91.7699 22.425 98.2874 22.425 106.32C22.425 114.352 28.8825 120.87 36.8925 120.967V91.6649Z" fill="#F4A93F"/>
<path d="M37.4401 119.588C36.8691 119.586 36.322 119.358 35.9175 118.955C35.5131 118.552 35.284 118.006 35.2801 117.435V114.825H31.2826C30.9887 114.842 30.6944 114.8 30.4177 114.699C30.1411 114.598 29.8879 114.442 29.6737 114.241C29.4595 114.039 29.2888 113.795 29.1722 113.525C29.0555 113.254 28.9954 112.963 28.9954 112.669C28.9954 112.374 29.0555 112.083 29.1722 111.813C29.2888 111.543 29.4595 111.299 29.6737 111.097C29.8879 110.895 30.1411 110.739 30.4177 110.639C30.6944 110.538 30.9887 110.495 31.2826 110.513H40.3201C40.474 110.525 40.6289 110.506 40.775 110.456C40.921 110.405 41.0551 110.325 41.1687 110.221C41.2823 110.116 41.373 109.989 41.435 109.848C41.497 109.706 41.5291 109.553 41.5291 109.399C41.5291 109.244 41.497 109.092 41.435 108.95C41.373 108.809 41.2823 108.682 41.1687 108.577C41.0551 108.472 40.921 108.392 40.775 108.342C40.6289 108.292 40.474 108.272 40.3201 108.285H34.5526C33.8395 108.285 33.1334 108.145 32.4746 107.872C31.8158 107.599 31.2172 107.199 30.713 106.695C30.2088 106.19 29.8088 105.592 29.5359 104.933C29.263 104.274 29.1226 103.568 29.1226 102.855C29.1226 102.142 29.263 101.436 29.5359 100.777C29.8088 100.118 30.2088 99.5197 30.713 99.0155C31.2172 98.5113 31.8158 98.1113 32.4746 97.8384C33.1334 97.5656 33.8395 97.4251 34.5526 97.4251H35.2801V95.7076C35.2801 95.1347 35.5077 94.5853 35.9127 94.1803C36.3178 93.7752 36.8672 93.5476 37.4401 93.5476C38.013 93.5476 38.5624 93.7752 38.9674 94.1803C39.3725 94.5853 39.6001 95.1347 39.6001 95.7076V97.4251H43.5976C43.8812 97.4251 44.1621 97.481 44.4242 97.5895C44.6862 97.6981 44.9244 97.8572 45.1249 98.0578C45.3255 98.2583 45.4846 98.4964 45.5932 98.7585C45.7017 99.0206 45.7576 99.3015 45.7576 99.5851C45.7576 99.8688 45.7017 100.15 45.5932 100.412C45.4846 100.674 45.3255 100.912 45.1249 101.112C44.9244 101.313 44.6862 101.472 44.4242 101.581C44.1621 101.689 43.8812 101.745 43.5976 101.745H34.5526C34.4068 101.745 34.2625 101.774 34.1278 101.83C33.9931 101.885 33.8708 101.967 33.7677 102.07C33.6646 102.173 33.5829 102.296 33.5271 102.43C33.4713 102.565 33.4426 102.709 33.4426 102.855C33.4426 103.001 33.4713 103.145 33.5271 103.28C33.5829 103.415 33.6646 103.537 33.7677 103.64C33.8708 103.743 33.9931 103.825 34.1278 103.881C34.2625 103.936 34.4068 103.965 34.5526 103.965H40.3201C41.7602 103.965 43.1414 104.537 44.1597 105.556C45.178 106.574 45.7501 107.955 45.7501 109.395C45.7501 110.835 45.178 112.216 44.1597 113.235C43.1414 114.253 41.7602 114.825 40.3201 114.825H39.6001V117.435C39.5981 118.007 39.3697 118.554 38.9648 118.958C38.5599 119.361 38.0117 119.588 37.4401 119.588V119.588Z" fill="#F8881B"/>
<path d="M39.7724 104.115H33.9974C33.6149 104.088 33.257 103.917 32.9956 103.637C32.7342 103.356 32.5889 102.987 32.5889 102.604C32.5889 102.22 32.7342 101.851 32.9956 101.571C33.257 101.29 33.6149 101.12 33.9974 101.093H43.0499C43.4965 101.063 43.9152 100.865 44.2212 100.539C44.5272 100.212 44.6974 99.7814 44.6974 99.3338C44.6974 98.8862 44.5272 98.4555 44.2212 98.1288C43.9152 97.8022 43.4965 97.6042 43.0499 97.5751H38.6474V95.4601C38.6631 95.2194 38.6293 94.9781 38.548 94.7511C38.4667 94.5241 38.3397 94.3162 38.1749 94.1402C38.01 93.9642 37.8108 93.8239 37.5896 93.728C37.3683 93.6321 37.1297 93.5826 36.8886 93.5826C36.6475 93.5826 36.4089 93.6321 36.1877 93.728C35.9664 93.8239 35.7672 93.9642 35.6023 94.1402C35.4375 94.3162 35.3105 94.5241 35.2292 94.7511C35.148 94.9781 35.1141 95.2194 35.1299 95.4601V97.5751H33.9974C32.6973 97.6253 31.4671 98.1771 30.5651 99.1146C29.663 100.052 29.1591 101.303 29.1591 102.604C29.1591 103.905 29.663 105.155 30.5651 106.093C31.4671 107.031 32.6973 107.582 33.9974 107.633H39.7724C40.1742 107.633 40.5595 107.792 40.8436 108.076C41.1277 108.36 41.2874 108.746 41.2874 109.148C41.2874 109.549 41.1277 109.935 40.8436 110.219C40.5595 110.503 40.1742 110.663 39.7724 110.663H30.7349C30.2694 110.663 29.823 110.847 29.4939 111.177C29.1648 111.506 28.9799 111.952 28.9799 112.418C28.9799 112.883 29.1648 113.329 29.4939 113.659C29.823 113.988 30.2694 114.173 30.7349 114.173H35.1299V117.18C35.159 117.627 35.357 118.045 35.6836 118.351C36.0103 118.657 36.4411 118.828 36.8886 118.828C37.3362 118.828 37.7669 118.657 38.0936 118.351C38.4202 118.045 38.6182 117.627 38.6474 117.18V114.173H39.7724C41.0725 114.122 42.3026 113.571 43.2046 112.633C44.1067 111.695 44.6106 110.445 44.6106 109.144C44.6106 107.843 44.1067 106.592 43.2046 105.655C42.3026 104.717 41.0725 104.165 39.7724 104.115Z" fill="#CF6B00"/>
<path d="M105.075 45.6151C103.725 41.0776 102.03 36.9226 100.013 33.2101C97.6651 28.8901 94.9726 25.3426 91.9876 22.6351C91.0876 22.3726 90.1801 22.1401 89.2576 21.9301C88.8976 22.9351 88.5826 23.9626 88.3201 25.0126C91.2826 27.4651 93.9751 30.8926 96.3226 35.2126C98.1376 38.5501 99.6751 42.2851 100.913 46.3726L100.058 46.5076C97.1426 46.9776 94.2351 47.3551 91.3351 47.6401C92.1039 49.0227 92.9817 50.3419 93.9601 51.5851C96.2101 51.3301 98.4676 51.0226 100.718 50.6551L102.023 50.4451C102.098 50.7676 102.18 51.0901 102.255 51.4126C102.893 54.1951 103.387 57.0089 103.733 59.8426C105.161 60.6122 106.648 61.2667 108.18 61.8001C107.811 57.987 107.198 54.2017 106.343 50.4676L106.163 49.6801C111.225 48.6826 116.363 47.4151 121.508 45.8851C120.783 44.6201 120.005 43.3901 119.175 42.1951C114.443 43.5601 109.725 44.7076 105.075 45.6151Z" fill="#64639C"/>
</svg>
