<svg width="150" height="150" viewBox="0 0 150 150" fill="none" xmlns="http://www.w3.org/2000/svg">
<path d="M116.168 126.023H33.8325C32.5308 126.024 31.2416 125.768 30.0387 125.271C28.8358 124.773 27.7428 124.043 26.822 123.123C25.9012 122.203 25.1707 121.111 24.6724 119.908C24.174 118.706 23.9175 117.417 23.9175 116.115V60.1875C23.9181 58.7348 24.2813 57.3052 24.9741 56.0283C25.6669 54.7514 26.6675 53.6676 27.885 52.875L68.1 26.745C70.3054 25.311 72.882 24.5533 75.5126 24.5653C78.1432 24.5773 80.7128 25.3585 82.905 26.8125L122.183 52.8675C123.382 53.6632 124.365 54.7432 125.046 56.0112C125.726 57.2792 126.082 58.6959 126.083 60.135V116.115C126.083 117.417 125.826 118.706 125.328 119.908C124.829 121.111 124.099 122.203 123.178 123.123C122.257 124.043 121.164 124.773 119.961 125.271C118.758 125.768 117.469 126.024 116.168 126.023V126.023Z" fill="#67BAEB"/>
<path d="M31.0275 116.115V60.1876C31.0282 58.7348 31.3913 57.3052 32.0841 56.0283C32.7769 54.7514 33.7775 53.6676 34.995 52.8751L75.21 26.7451C76.379 25.9841 77.6593 25.4097 79.005 25.0426C77.1699 24.5421 75.2498 24.4351 73.3705 24.7285C71.4912 25.0219 69.6952 25.7091 68.1 26.7451L27.885 52.8751C26.6675 53.6676 25.6669 54.7514 24.9741 56.0283C24.2813 57.3052 23.9181 58.7348 23.9175 60.1876V116.115C23.9175 117.417 24.174 118.706 24.6724 119.908C25.1707 121.111 25.9012 122.203 26.822 123.123C27.7428 124.043 28.8358 124.773 30.0387 125.271C31.2416 125.768 32.5308 126.024 33.8325 126.023H40.935C39.6336 126.024 38.3449 125.768 37.1424 125.27C35.9399 124.773 34.8473 124.043 33.9271 123.123C33.0069 122.203 32.2772 121.11 31.7796 119.908C31.2821 118.705 31.0265 117.416 31.0275 116.115V116.115Z" fill="#49ADE6"/>
<path d="M117.773 118.53H32.2275C30.609 118.532 29.0131 118.151 27.5692 117.42C26.1252 116.689 24.8741 115.628 23.9175 114.323V116.115C23.9175 117.417 24.174 118.706 24.6724 119.908C25.1707 121.111 25.9012 122.203 26.822 123.123C27.7428 124.043 28.8358 124.773 30.0387 125.27C31.2416 125.768 32.5308 126.023 33.8325 126.022H116.168C117.469 126.023 118.758 125.768 119.961 125.27C121.164 124.773 122.257 124.043 123.178 123.123C124.099 122.203 124.829 121.111 125.328 119.908C125.826 118.706 126.083 117.417 126.083 116.115V114.323C125.126 115.628 123.875 116.689 122.431 117.42C120.987 118.151 119.391 118.532 117.773 118.53V118.53Z" fill="#49ADE6"/>
<path d="M125.16 56.235C124.478 54.8721 123.452 53.7112 122.182 52.8675L82.905 26.8125C80.7128 25.3585 78.1432 24.5773 75.5126 24.5653C72.882 24.5533 70.3054 25.311 68.1 26.745L27.885 52.875C26.798 53.584 25.8832 54.527 25.2075 55.635L25.9125 56.235L67.8975 90.99C69.9007 92.6482 72.4162 93.5617 75.0166 93.5754C77.617 93.5891 80.142 92.7021 82.1625 91.065L123.577 57.4875L125.16 56.235Z" fill="#46A1F8"/>
<path d="M122.182 52.8675L120.87 51.9975L119.902 52.89L82.125 88.5976C78 92.4901 72.0225 92.4525 67.9425 88.515L29.775 51.66H29.7675L27.885 52.875C26.798 53.584 25.8832 54.527 25.2075 55.635L25.9125 56.235L67.8975 90.99C69.9007 92.6482 72.4162 93.5617 75.0166 93.5754C77.617 93.5891 80.142 92.7021 82.1625 91.065L123.577 57.4875L125.16 56.235C124.478 54.8721 123.452 53.7112 122.182 52.8675V52.8675Z" fill="#2F8AE0"/>
<path d="M48.0674 39.765C49.3649 52.5 60.1199 62.4375 73.1999 62.4375C87.1499 62.4375 98.4599 51.12 98.4599 37.17V37.1325L82.9049 26.8125C80.7127 25.3585 78.1431 24.5773 75.5125 24.5653C72.8819 24.5533 70.3052 25.311 68.0999 26.745L48.0674 39.765Z" fill="#2F8AE0"/>
<path d="M73.2 57.2925C84.3134 57.2925 93.3225 48.2833 93.3225 37.17C93.3225 26.0566 84.3134 17.0475 73.2 17.0475C62.0867 17.0475 53.0775 26.0566 53.0775 37.17C53.0775 48.2833 62.0867 57.2925 73.2 57.2925Z" fill="#F8881B"/>
<path d="M73.2001 54.945C83.0169 54.945 90.9751 46.9869 90.9751 37.17C90.9751 27.3532 83.0169 19.395 73.2001 19.395C63.3832 19.395 55.425 27.3532 55.425 37.17C55.425 46.9869 63.3832 54.945 73.2001 54.945Z" fill="#F08000"/>
<path d="M73.2 52.9426C81.9109 52.9426 88.9725 45.881 88.9725 37.1701C88.9725 28.4592 81.9109 21.3976 73.2 21.3976C64.4891 21.3976 57.4275 28.4592 57.4275 37.1701C57.4275 45.881 64.4891 52.9426 73.2 52.9426Z" fill="#F4C23F"/>
<path d="M87.51 33.87C87.885 33.87 88.2525 33.855 88.62 33.825C87.8855 30.4464 86.0617 27.4026 83.4289 25.1614C80.7961 22.9202 77.5 21.6057 74.0475 21.42C74.58 28.3875 80.4075 33.87 87.51 33.87Z" fill="#FAD564"/>
<path d="M72.5625 51.945C71.9479 51.945 71.3584 51.7008 70.9238 51.2662C70.4892 50.8316 70.245 50.2421 70.245 49.6275V46.8225H65.9325C65.3159 46.8225 64.7245 46.5775 64.2885 46.1415C63.8525 45.7055 63.6075 45.1141 63.6075 44.4975C63.6075 43.8809 63.8525 43.2895 64.2885 42.8535C64.7245 42.4174 65.3159 42.1725 65.9325 42.1725H75.6675C75.9858 42.1725 76.291 42.0461 76.5161 41.821C76.7411 41.596 76.8675 41.2907 76.8675 40.9725C76.8675 40.6542 76.7411 40.349 76.5161 40.124C76.291 39.8989 75.9858 39.7725 75.6675 39.7725H69.4575C67.908 39.7725 66.422 39.1569 65.3263 38.0613C64.2306 36.9656 63.615 35.4795 63.615 33.93C63.615 32.3805 64.2306 30.8944 65.3263 29.7987C66.422 28.703 67.908 28.0875 69.4575 28.0875H70.245V26.235C70.2788 25.6422 70.538 25.0847 70.9696 24.6769C71.4012 24.2692 71.9725 24.042 72.5663 24.042C73.1601 24.042 73.7314 24.2692 74.163 24.6769C74.5946 25.0847 74.8538 25.6422 74.8875 26.235V28.0875H79.1925C79.8092 28.0875 80.4005 28.3324 80.8366 28.7685C81.2726 29.2045 81.5175 29.7959 81.5175 30.4125C81.5175 31.0291 81.2726 31.6205 80.8366 32.0565C80.4005 32.4925 79.8092 32.7375 79.1925 32.7375H69.4575C69.2925 32.7244 69.1265 32.7456 68.9701 32.7998C68.8136 32.854 68.67 32.94 68.5484 33.0523C68.4268 33.1647 68.3298 33.301 68.2634 33.4527C68.197 33.6044 68.1628 33.7682 68.1628 33.9337C68.1628 34.0993 68.197 34.2631 68.2634 34.4148C68.3298 34.5665 68.4268 34.7028 68.5484 34.8151C68.67 34.9275 68.8136 35.0135 68.9701 35.0677C69.1265 35.1218 69.2925 35.1431 69.4575 35.13H75.6675C77.1818 35.1842 78.616 35.8239 79.6681 36.9144C80.7202 38.0048 81.3081 39.461 81.3081 40.9762C81.3081 42.4915 80.7202 43.9476 79.6681 45.0381C78.616 46.1285 77.1818 46.7682 75.6675 46.8225H74.8875V49.6275C74.8875 49.9325 74.8274 50.2344 74.7104 50.5161C74.5935 50.7977 74.4221 51.0536 74.2061 51.2689C73.9901 51.4842 73.7338 51.6547 73.4517 51.7707C73.1697 51.8868 72.8675 51.946 72.5625 51.945V51.945Z" fill="#F4A93F"/>
<path d="M76.0951 34.8H69.8851C69.6714 34.8 69.4598 34.7579 69.2623 34.6761C69.0648 34.5943 68.8854 34.4745 68.7343 34.3233C68.5832 34.1722 68.4633 33.9928 68.3815 33.7953C68.2997 33.5979 68.2576 33.3862 68.2576 33.1725C68.2576 32.9588 68.2997 32.7472 68.3815 32.5497C68.4633 32.3522 68.5832 32.1728 68.7343 32.0217C68.8854 31.8706 69.0648 31.7507 69.2623 31.6689C69.4598 31.5871 69.6714 31.545 69.8851 31.545H79.6276C80.1093 31.5147 80.5613 31.302 80.8916 30.9502C81.222 30.5984 81.4059 30.1339 81.4059 29.6513C81.4059 29.1687 81.222 28.7042 80.8916 28.3524C80.5613 28.0006 80.1093 27.7879 79.6276 27.7575H74.8876V25.4775C74.8876 24.9763 74.6885 24.4955 74.3341 24.1411C73.9796 23.7866 73.4989 23.5875 72.9976 23.5875C72.4964 23.5875 72.0156 23.7866 71.6612 24.1411C71.3067 24.4955 71.1076 24.9763 71.1076 25.4775V27.7575H69.8851C68.4848 27.8097 67.1593 28.4026 66.187 29.4117C65.2148 30.4208 64.6716 31.7675 64.6716 33.1688C64.6716 34.57 65.2148 35.9167 66.187 36.9258C67.1593 37.935 68.4848 38.5279 69.8851 38.58H76.0951C76.3186 38.5649 76.5429 38.5958 76.754 38.6709C76.965 38.746 77.1584 38.8637 77.3221 39.0167C77.4858 39.1696 77.6163 39.3546 77.7055 39.5601C77.7947 39.7656 77.8408 39.9872 77.8408 40.2113C77.8408 40.4353 77.7947 40.657 77.7055 40.8625C77.6163 41.068 77.4858 41.2529 77.3221 41.4059C77.1584 41.5588 76.965 41.6765 76.754 41.7516C76.5429 41.8268 76.3186 41.8577 76.0951 41.8425H66.3676C65.886 41.8729 65.434 42.0856 65.1036 42.4374C64.7732 42.7892 64.5894 43.2537 64.5894 43.7363C64.5894 44.2189 64.7732 44.6834 65.1036 45.0352C65.434 45.387 65.886 45.5997 66.3676 45.63H71.1076V48.8625C71.1076 49.3638 71.3067 49.8445 71.6612 50.199C72.0156 50.5534 72.4964 50.7525 72.9976 50.7525C73.4989 50.7525 73.9796 50.5534 74.3341 50.199C74.6885 49.8445 74.8876 49.3638 74.8876 48.8625V45.63H76.0951C77.5313 45.63 78.9086 45.0595 79.9241 44.044C80.9396 43.0285 81.5101 41.6512 81.5101 40.215C81.5101 38.7789 80.9396 37.4015 79.9241 36.386C78.9086 35.3705 77.5313 34.8 76.0951 34.8V34.8Z" fill="#CF6B00"/>
<path d="M120.24 73.8225H120.233C117.006 73.8225 114.39 76.4383 114.39 79.665V95.0475C114.39 98.2742 117.006 100.89 120.233 100.89H120.24C123.467 100.89 126.083 98.2742 126.083 95.0475V79.665C126.083 76.4383 123.467 73.8225 120.24 73.8225Z" fill="#83D0FB"/>
</svg>
