<svg width="108" height="108" viewBox="0 0 108 108" fill="none" xmlns="http://www.w3.org/2000/svg">
<g clip-path="url(#clip0)">
<path d="M23.4792 31.6062H73.9314C76.1784 31.6062 78.3335 32.4988 79.9224 34.0878C81.5113 35.6767 82.404 37.8317 82.404 40.0788V42.5304H23.4792C22.7618 42.5304 22.0514 42.389 21.3887 42.1143C20.726 41.8396 20.1239 41.437 19.6169 40.9295C19.1099 40.4219 18.7078 39.8195 18.4338 39.1565C18.1598 38.4935 18.0191 37.783 18.0198 37.0656V37.0656C18.0198 36.3487 18.161 35.6387 18.4353 34.9764C18.7097 34.314 19.1118 33.7122 19.6188 33.2052C20.1258 32.6983 20.7276 32.2961 21.39 32.0218C22.0523 31.7474 22.7622 31.6062 23.4792 31.6062V31.6062Z" fill="#3171AD"/>
<path d="M29.7162 39.9708C28.2668 39.9708 26.8768 39.395 25.852 38.3702C24.8271 37.3454 24.2514 35.9554 24.2514 34.506V34.506C24.2509 33.4797 24.5411 32.4743 25.0884 31.6062H23.4792C22.7622 31.6062 22.0523 31.7474 21.39 32.0218C20.7276 32.2961 20.1257 32.6983 19.6188 33.2052C19.1118 33.7122 18.7097 34.314 18.4353 34.9764C18.161 35.6387 18.0198 36.3487 18.0198 37.0656V37.0656C18.0198 38.514 18.5948 39.9032 19.6185 40.9279C20.6421 41.9526 22.0308 42.529 23.4792 42.5304H82.4094V39.9708H29.7162Z" fill="#11589E"/>
<path d="M70.2486 39.2904C71.2576 36.8979 71.7755 34.327 71.7714 31.7304V31.6062H32.94C32.94 31.6494 32.9346 31.6926 32.9346 31.7304C32.9323 34.3273 33.452 36.8982 34.4628 39.2904C34.9446 40.4221 35.5303 41.5068 36.2124 42.5304H68.499C69.181 41.5068 69.7667 40.4221 70.2486 39.2904V39.2904Z" fill="#11589E"/>
<path d="M52.353 48.1247C61.4074 48.1247 68.7474 40.7847 68.7474 31.7303C68.7474 22.676 61.4074 15.3359 52.353 15.3359C43.2986 15.3359 35.9586 22.676 35.9586 31.7303C35.9586 40.7847 43.2986 48.1247 52.353 48.1247Z" fill="#F8881B"/>
<path d="M52.3529 46.2186C60.3546 46.2186 66.8411 39.732 66.8411 31.7304C66.8411 23.7288 60.3546 17.2422 52.3529 17.2422C44.3513 17.2422 37.8647 23.7288 37.8647 31.7304C37.8647 39.732 44.3513 46.2186 52.3529 46.2186Z" fill="#F08000"/>
<path d="M52.353 44.5824C59.4509 44.5824 65.205 38.8284 65.205 31.7304C65.205 24.6325 59.4509 18.8784 52.353 18.8784C45.255 18.8784 39.501 24.6325 39.501 31.7304C39.501 38.8284 45.255 44.5824 52.353 44.5824Z" fill="#F4C23F"/>
<path d="M64.017 29.0465C64.3194 29.0465 64.6218 29.0303 64.9188 29.0087C63.7146 23.4359 58.9032 19.2077 53.0496 18.8945C53.4816 24.5753 58.2282 29.0465 64.017 29.0465Z" fill="#FAD564"/>
<path d="M51.84 43.7725C51.3383 43.7725 50.857 43.5735 50.5017 43.2192C50.1464 42.865 49.9461 42.3842 49.9446 41.8825V39.5929H46.4346C45.9502 39.567 45.494 39.3563 45.1602 39.0042C44.8264 38.6521 44.6404 38.1854 44.6404 37.7002C44.6404 37.215 44.8264 36.7483 45.1602 36.3962C45.494 36.0441 45.9502 35.8334 46.4346 35.8075H54.3672C54.6265 35.8075 54.8751 35.7045 55.0584 35.5212C55.2417 35.3379 55.3446 35.0893 55.3446 34.8301C55.3446 34.5709 55.2417 34.3222 55.0584 34.139C54.8751 33.9557 54.6265 33.8527 54.3672 33.8527H49.302C48.0673 33.8111 46.8971 33.2914 46.0384 32.4032C45.1796 31.5151 44.6996 30.328 44.6996 29.0926C44.6996 27.8572 45.1796 26.6701 46.0384 25.7819C46.8971 24.8938 48.0673 24.3741 49.302 24.3325H49.9446V22.8259C49.9309 22.5688 49.9697 22.3117 50.0586 22.0701C50.1475 21.8285 50.2847 21.6076 50.4618 21.4207C50.6389 21.2339 50.8522 21.0851 51.0887 20.9835C51.3252 20.8818 51.5799 20.8293 51.8373 20.8293C52.0948 20.8293 52.3495 20.8818 52.586 20.9835C52.8225 21.0851 53.0358 21.2339 53.2129 21.4207C53.39 21.6076 53.5272 21.8285 53.6161 22.0701C53.705 22.3117 53.7438 22.5688 53.73 22.8259V24.3325H57.24C57.7245 24.3584 58.1807 24.5691 58.5145 24.9212C58.8483 25.2733 59.0343 25.74 59.0343 26.2252C59.0343 26.7104 58.8483 27.1771 58.5145 27.5292C58.1807 27.8813 57.7245 28.092 57.24 28.1179H49.302C49.0561 28.1362 48.8261 28.2468 48.6583 28.4276C48.4905 28.6084 48.3972 28.8459 48.3972 29.0926C48.3972 29.3392 48.4905 29.5768 48.6583 29.7575C48.8261 29.9383 49.0561 30.049 49.302 30.0673H54.3672C55.6304 30.0673 56.8419 30.5691 57.7351 31.4623C58.6283 32.3555 59.13 33.5669 59.13 34.8301C59.13 36.0933 58.6283 37.3047 57.7351 38.1979C56.8419 39.0911 55.6304 39.5929 54.3672 39.5929H53.73V41.8825C53.73 42.3837 53.5309 42.8645 53.1765 43.2189C52.822 43.5734 52.3413 43.7725 51.84 43.7725V43.7725Z" fill="#F4A93F"/>
<path d="M54.7182 29.8026H49.6584C49.3061 29.8026 48.9682 29.6626 48.7191 29.4135C48.47 29.1644 48.33 28.8265 48.33 28.4742C48.33 28.1219 48.47 27.784 48.7191 27.5349C48.9682 27.2857 49.3061 27.1458 49.6584 27.1458H57.591C57.9841 27.1225 58.3535 26.9499 58.6236 26.6634C58.8937 26.3768 59.0441 25.9979 59.0441 25.6041C59.0441 25.2103 58.8937 24.8314 58.6236 24.5448C58.3535 24.2582 57.9841 24.0857 57.591 24.0624H53.73V22.2048C53.7424 21.9946 53.7118 21.7842 53.64 21.5863C53.5681 21.3885 53.4566 21.2074 53.3122 21.0542C53.1678 20.901 52.9936 20.779 52.8004 20.6955C52.6071 20.6121 52.3988 20.5691 52.1883 20.5691C51.9778 20.5691 51.7695 20.6121 51.5763 20.6955C51.383 20.779 51.2088 20.901 51.0644 21.0542C50.9201 21.2074 50.8085 21.3885 50.7367 21.5863C50.6648 21.7842 50.6342 21.9946 50.6466 22.2048V24.0624H49.6584C49.0664 24.0417 48.4763 24.1404 47.9233 24.3526C47.3703 24.5649 46.8656 24.8863 46.4395 25.2978C46.0134 25.7092 45.6745 26.2023 45.443 26.7476C45.2116 27.2928 45.0923 27.8791 45.0923 28.4715C45.0923 29.0638 45.2116 29.6501 45.443 30.1954C45.6745 30.7406 46.0134 31.2337 46.4395 31.6452C46.8656 32.0566 47.3703 32.3781 47.9233 32.5903C48.4763 32.8026 49.0664 32.9013 49.6584 32.8806H54.7182C55.0566 32.9021 55.374 33.0518 55.6061 33.299C55.8381 33.5463 55.9672 33.8726 55.9672 34.2117C55.9672 34.5507 55.8381 34.8771 55.6061 35.1243C55.374 35.3716 55.0566 35.5212 54.7182 35.5428H46.7856C46.3774 35.5428 45.986 35.7049 45.6974 35.9935C45.4088 36.2822 45.2466 36.6736 45.2466 37.0818C45.2466 37.4899 45.4088 37.8814 45.6974 38.17C45.986 38.4586 46.3774 38.6208 46.7856 38.6208H50.6466V41.2614C50.6699 41.6545 50.8424 42.0239 51.129 42.294C51.4156 42.5641 51.7945 42.7145 52.1883 42.7145C52.5821 42.7145 52.961 42.5641 53.2476 42.294C53.5342 42.0239 53.7067 41.6545 53.73 41.2614V38.6208H54.7182C55.8609 38.5808 56.9434 38.0987 57.7376 37.2762C58.5318 36.4537 58.9757 35.355 58.9757 34.2117C58.9757 33.0683 58.5318 31.9696 57.7376 31.1471C56.9434 30.3246 55.8609 29.8426 54.7182 29.8026V29.8026Z" fill="#CF6B00"/>
<path d="M76.95 42.5304H23.4792C22.0308 42.5289 20.6421 41.9525 19.6185 40.9278C18.5948 39.9031 18.0198 38.514 18.0198 37.0656V86.1408C18.0198 86.8 18.1497 87.4528 18.4022 88.0618C18.6546 88.6708 19.0246 89.224 19.491 89.6899C19.9574 90.1558 20.5111 90.5253 21.1203 90.777C21.7296 91.0288 22.3825 91.1581 23.0418 91.1574H85.4496C86.1088 91.1581 86.7618 91.0288 87.371 90.777C87.9803 90.5253 88.5339 90.1558 89.0003 89.6899C89.4668 89.224 89.8368 88.6708 90.0892 88.0618C90.3416 87.4528 90.4716 86.8 90.4716 86.1408V47.5524C90.4716 46.2204 89.9425 44.9431 89.0007 44.0013C88.0589 43.0595 86.7815 42.5304 85.4496 42.5304H76.95Z" fill="#67BAEB"/>
<path d="M28.3662 83.187C27.0343 83.187 25.7569 82.6579 24.8151 81.7161C23.8733 80.7742 23.3442 79.4969 23.3442 78.165V42.5304C21.9193 42.4937 20.5651 41.9019 19.5704 40.8809C18.5757 39.86 18.0193 38.4909 18.0198 37.0656V86.1408C18.0198 86.8 18.1497 87.4528 18.4022 88.0618C18.6546 88.6708 19.0246 89.224 19.491 89.6899C19.9574 90.1558 20.5111 90.5253 21.1203 90.777C21.7296 91.0288 22.3825 91.1581 23.0418 91.1574H85.4496C86.1088 91.1581 86.7618 91.0288 87.371 90.777C87.9803 90.5253 88.5339 90.1558 89.0003 89.6899C89.4668 89.224 89.8368 88.6708 90.0892 88.0618C90.3416 87.4528 90.4716 86.8 90.4716 86.1408V83.187H28.3662Z" fill="#46A1F8"/>
<path d="M90.4716 58.7628H70.551C68.4428 58.7628 66.421 59.6003 64.9303 61.091C63.4396 62.5817 62.6022 64.6035 62.6022 66.7116C62.6022 68.8198 63.4396 70.8416 64.9303 72.3323C66.421 73.823 68.4428 74.6604 70.551 74.6604H90.4716V58.7628Z" fill="#46A1F8"/>
<path d="M71.3123 58.7628H91.7352C92.5687 58.7628 93.3681 59.0939 93.9574 59.6833C94.5468 60.2727 94.878 61.0721 94.878 61.9056V70.1622C94.878 70.9957 94.5468 71.7951 93.9574 72.3845C93.3681 72.9739 92.5687 73.305 91.7352 73.305H71.3123C70.3574 73.305 69.4118 73.1168 68.5296 72.7512C67.6474 72.3856 66.8459 71.8498 66.1709 71.1742C65.4959 70.4987 64.9606 69.6968 64.5957 68.8144C64.2307 67.9319 64.0432 66.9862 64.0439 66.0312V66.0312C64.0439 64.1035 64.8097 62.2548 66.1728 60.8917C67.5359 59.5286 69.3846 58.7628 71.3123 58.7628V58.7628Z" fill="#4D4C78"/>
<path d="M92.9016 71.3826H72.4788C70.5511 71.3826 68.7023 70.6168 67.3392 69.2537C65.9761 67.8906 65.2104 66.0419 65.2104 64.1142V64.1142C65.2091 63.164 65.3944 62.2228 65.7558 61.344C64.6479 62.6542 64.0412 64.3153 64.044 66.0312C64.044 67.9589 64.8097 69.8076 66.1728 71.1707C67.5359 72.5338 69.3847 73.2996 71.3124 73.2996H91.7352C92.4706 73.2992 93.1826 73.0414 93.7478 72.5709C94.313 72.1004 94.6957 71.4469 94.8294 70.7238C94.2775 71.151 93.5994 71.3827 92.9016 71.3826V71.3826Z" fill="#323150"/>
<path d="M72.2844 68.715C73.7666 68.715 74.9682 67.5134 74.9682 66.0312C74.9682 64.549 73.7666 63.3474 72.2844 63.3474C70.8022 63.3474 69.6006 64.549 69.6006 66.0312C69.6006 67.5134 70.8022 68.715 72.2844 68.715Z" fill="#C8C2E9"/>
<path d="M90.1206 58.8221H79.5743C78.5156 58.8221 77.6573 59.6804 77.6573 60.7391V60.7397C77.6573 61.7984 78.5156 62.6567 79.5743 62.6567H90.1206C91.1793 62.6567 92.0376 61.7984 92.0376 60.7397V60.7391C92.0376 59.6804 91.1793 58.8221 90.1206 58.8221Z" fill="#64639C"/>
<path d="M72.252 42.5304H44.5608C42.1958 42.5304 40.2786 44.4476 40.2786 46.8126V46.8142C40.2786 49.1792 42.1958 51.0964 44.5608 51.0964H72.252C74.617 51.0964 76.5342 49.1792 76.5342 46.8142V46.8126C76.5342 44.4476 74.617 42.5304 72.252 42.5304Z" fill="#83D0FB"/>
</g>
<defs>
<clipPath id="clip0">
<rect width="108" height="108" fill="white"/>
</clipPath>
</defs>
</svg>
