<svg width="150" height="150" viewBox="0 0 150 150" fill="none" xmlns="http://www.w3.org/2000/svg">
<path d="M109.455 49.695C105.847 35.175 92.7224 24.4125 77.0849 24.4125C65.3924 24.4125 55.1024 30.4275 49.1474 39.54C47.7197 39.3019 46.2749 39.1815 44.8274 39.18C30.4874 39.18 18.8624 50.805 18.8624 65.145C18.8624 79.485 30.4874 91.11 44.8274 91.11H106.65C118.14 91.11 127.447 81.795 127.447 70.3125C127.447 59.775 119.617 51.0675 109.455 49.695Z" fill="#67BAEB"/>
<path d="M71.955 88.9126C86.0879 88.9126 97.545 77.4555 97.545 63.3225C97.545 49.1896 86.0879 37.7325 71.955 37.7325C57.822 37.7325 46.365 49.1896 46.365 63.3225C46.365 77.4555 57.822 88.9126 71.955 88.9126Z" fill="#46A1F8"/>
<path d="M66.9825 28.9125C81.0075 28.9125 93.225 36.6825 99.555 48.15C102.247 53.0325 106.23 57.0675 111.105 59.7525C118.275 63.6975 123.127 71.325 123.127 80.0775C123.127 81.1487 123.055 82.2186 122.91 83.28C125.856 79.6007 127.457 75.0257 127.447 70.3125C127.447 59.775 119.617 51.0675 109.455 49.695C105.847 35.175 92.7225 24.4125 77.085 24.4125C70.6394 24.4009 64.3299 26.2669 58.9275 29.7825C61.5731 29.202 64.2739 28.9103 66.9825 28.9125V28.9125Z" fill="#83D0FB"/>
<path d="M116.73 82.1625H54.9074C40.5674 82.1625 28.9424 70.5375 28.9424 56.1975C28.9357 51.1178 30.4251 46.1486 33.2249 41.91C24.7124 46.17 18.8624 54.975 18.8624 65.145C18.8624 79.485 30.4874 91.11 44.8274 91.11H106.65C114.412 91.11 121.177 86.8575 124.755 80.5575C122.213 81.6211 119.485 82.1667 116.73 82.1625Z" fill="#46A1F8"/>
<path d="M54.0375 91.11H66.2925V73.6875H54.0375V91.11Z" fill="#46A1F8"/>
<path d="M85.9951 63.84V108.465H93.5326C95.3476 108.465 96.1876 110.708 94.8301 111.9L74.4526 129.758C74.0951 130.072 73.6352 130.246 73.1588 130.246C72.6825 130.246 72.2226 130.072 71.8651 129.758L51.4876 111.9C50.1226 110.708 50.9701 108.465 52.7776 108.465H60.3151V63.84C60.3171 63.0748 60.6219 62.3415 61.163 61.8004C61.7041 61.2593 62.4374 60.9545 63.2026 60.9525H83.1076C83.8734 60.9525 84.6078 61.2567 85.1494 61.7982C85.6909 62.3398 85.9951 63.0742 85.9951 63.84V63.84Z" fill="#F4C23F"/>
<path d="M85.9951 72H72.5851C72.1449 71.998 71.7087 72.0831 71.3016 72.2505C70.8944 72.4178 70.5244 72.664 70.2128 72.9749C69.9012 73.2858 69.6541 73.6553 69.4859 74.062C69.3177 74.4688 69.2316 74.9048 69.2326 75.345V114.923C69.2326 115.812 68.8794 116.664 68.2507 117.293C67.622 117.922 66.7692 118.275 65.8801 118.275H58.7476L51.4876 111.9C50.1226 110.708 50.9701 108.465 52.7776 108.465H60.3151V63.84C60.3171 63.0748 60.6219 62.3415 61.163 61.8004C61.7041 61.2593 62.4374 60.9545 63.2026 60.9525H83.1076C83.8734 60.9525 84.6079 61.2567 85.1494 61.7982C85.6909 62.3398 85.9951 63.0742 85.9951 63.84V72Z" fill="#F4A93F"/>
<path d="M86.0026 95.3775C86.0026 93.1697 84.2128 91.38 82.0051 91.38C79.7973 91.38 78.0076 93.1697 78.0076 95.3775V99.2708C78.0076 101.479 79.7973 103.268 82.0051 103.268C84.2128 103.268 86.0026 101.479 86.0026 99.2708V95.3775Z" fill="#FAD564"/>
<path d="M84.4749 114.207L80.8911 117.4C79.9014 118.282 79.8139 119.799 80.6957 120.788C81.5774 121.778 83.0945 121.866 84.0842 120.984L87.668 117.791C88.6577 116.909 88.7452 115.392 87.8634 114.402C86.9816 113.413 85.4646 113.325 84.4749 114.207Z" fill="#FAD564"/>
<path d="M85.9951 108.465H93.5326C95.2876 108.465 96.1351 110.565 94.9501 111.787H87.3601C86.9994 111.787 86.6533 111.645 86.3976 111.39C86.1418 111.136 85.9971 110.791 85.9951 110.43V108.465Z" fill="#F4A93F"/>
<path d="M57.7126 113.407H53.2051L51.4876 111.9C50.1226 110.707 50.9701 108.465 52.7776 108.465H60.3151V110.805C60.3151 111.147 60.2478 111.485 60.117 111.801C59.9862 112.117 59.7945 112.404 59.5528 112.645C59.3112 112.887 59.0243 113.079 58.7085 113.209C58.3928 113.34 58.0544 113.407 57.7126 113.407V113.407Z" fill="#F8881B"/>
<path d="M71.9549 88.9125C76.9446 88.9204 81.8266 87.4626 85.995 84.72V63.84C85.995 63.0742 85.6907 62.3398 85.1492 61.7982C84.6077 61.2567 83.8733 60.9525 83.1075 60.9525H63.2024C62.4372 60.9545 61.7039 61.2593 61.1629 61.8004C60.6218 62.3415 60.3169 63.0748 60.3149 63.84V86.115C63.9182 87.9574 67.908 88.9163 71.9549 88.9125V88.9125Z" fill="#F4A93F"/>
<path d="M73.155 84.7051C86.6252 84.7051 97.545 73.7853 97.545 60.3151C97.545 46.8448 86.6252 35.925 73.155 35.925C59.6848 35.925 48.765 46.8448 48.765 60.3151C48.765 73.7853 59.6848 84.7051 73.155 84.7051Z" fill="#F8881B"/>
<path d="M73.155 81.8626C85.0554 81.8626 94.7025 72.2154 94.7025 60.3151C94.7025 48.4147 85.0554 38.7676 73.155 38.7676C61.2547 38.7676 51.6075 48.4147 51.6075 60.3151C51.6075 72.2154 61.2547 81.8626 73.155 81.8626Z" fill="#F08000"/>
<path d="M73.1549 79.4399C83.7174 79.4399 92.2799 70.8774 92.2799 60.3149C92.2799 49.7525 83.7174 41.1899 73.1549 41.1899C62.5925 41.1899 54.0299 49.7525 54.0299 60.3149C54.0299 70.8774 62.5925 79.4399 73.1549 79.4399Z" fill="#F4C23F"/>
<path d="M92.235 59.07C91.5975 49.1025 83.3175 41.22 73.2 41.1975C73.845 51.165 82.1175 59.0475 92.235 59.07Z" fill="#FAD564"/>
<path d="M71.955 77.6325C71.2091 77.6325 70.4937 77.3362 69.9663 76.8088C69.4388 76.2813 69.1425 75.566 69.1425 74.82V71.4225H63.9225C63.2007 71.3853 62.5208 71.0723 62.0231 70.5482C61.5254 70.0242 61.2479 69.329 61.2479 68.6063C61.2479 67.8835 61.5254 67.1884 62.0231 66.6643C62.5208 66.1403 63.2007 65.8273 63.9225 65.79H75.72C76.1059 65.79 76.476 65.6367 76.7488 65.3639C77.0217 65.091 77.175 64.7209 77.175 64.335C77.175 63.9491 77.0217 63.5791 76.7488 63.3062C76.476 63.0333 76.1059 62.88 75.72 62.88H68.19C66.3123 62.88 64.5114 62.1341 63.1837 60.8063C61.8559 59.4786 61.11 57.6778 61.11 55.8C61.11 53.9223 61.8559 52.1215 63.1837 50.7937C64.5114 49.466 66.3123 48.72 68.19 48.72H69.1425V46.47C69.1798 45.7482 69.4927 45.0683 70.0168 44.5706C70.5408 44.0729 71.236 43.7954 71.9587 43.7954C72.6815 43.7954 73.3766 44.0729 73.9007 44.5706C74.4248 45.0683 74.7377 45.7482 74.775 46.47V48.72H79.995C80.7409 48.72 81.4563 49.0163 81.9837 49.5438C82.5112 50.0712 82.8075 50.7866 82.8075 51.5325C82.8075 52.2785 82.5112 52.9938 81.9837 53.5213C81.4563 54.0487 80.7409 54.345 79.995 54.345H68.19C67.9906 54.3307 67.7905 54.3576 67.602 54.424C67.4135 54.4904 67.2407 54.595 67.0944 54.7312C66.948 54.8673 66.8313 55.0322 66.7516 55.2154C66.6718 55.3987 66.6306 55.5964 66.6306 55.7963C66.6306 55.9962 66.6718 56.1939 66.7516 56.3771C66.8313 56.5604 66.948 56.7252 67.0944 56.8614C67.2407 56.9976 67.4135 57.1021 67.602 57.1686C67.7905 57.235 67.9906 57.2619 68.19 57.2475H75.72C77.5997 57.2475 79.4025 57.9942 80.7316 59.3234C82.0608 60.6526 82.8075 62.4553 82.8075 64.335C82.8075 66.2148 82.0608 68.0175 80.7316 69.3467C79.4025 70.6758 77.5997 71.4225 75.72 71.4225H74.775V74.82C74.773 75.5666 74.475 76.282 73.9464 76.8092C73.4177 77.3365 72.7016 77.6325 71.955 77.6325Z" fill="#F4A93F"/>
<path d="M76.6725 57.4426H69.1425C68.6194 57.4426 68.1177 57.2348 67.7478 56.8648C67.3779 56.4949 67.17 55.9932 67.17 55.4701C67.17 54.9469 67.3779 54.4452 67.7478 54.0753C68.1177 53.7054 68.6194 53.4976 69.1425 53.4976H80.9475C81.5326 53.4641 82.0826 53.2081 82.4849 52.7821C82.8873 52.3561 83.1114 51.7923 83.1114 51.2063C83.1114 50.6204 82.8873 50.0566 82.4849 49.6306C82.0826 49.2046 81.5326 48.9486 80.9475 48.9151H75.2025V46.1476C75.2204 45.8357 75.1744 45.5234 75.0673 45.2299C74.9602 44.9364 74.7943 44.6678 74.5798 44.4407C74.3653 44.2135 74.1067 44.0326 73.8198 43.9089C73.5329 43.7852 73.2237 43.7214 72.9113 43.7214C72.5989 43.7214 72.2897 43.7852 72.0028 43.9089C71.7159 44.0326 71.4573 44.2135 71.2428 44.4407C71.0282 44.6678 70.8624 44.9364 70.7553 45.2299C70.6482 45.5234 70.6022 45.8357 70.62 46.1476V48.9151H69.1425C67.4414 48.9726 65.8292 49.6888 64.6462 50.9125C63.4632 52.1363 62.8019 53.7718 62.8019 55.4738C62.8019 57.1759 63.4632 58.8114 64.6462 60.0351C65.8292 61.2588 67.4414 61.975 69.1425 62.0326H76.6725C77.1756 62.0636 77.648 62.2853 77.9932 62.6525C78.3385 63.0197 78.5307 63.5048 78.5307 64.0088C78.5307 64.5129 78.3385 64.9979 77.9932 65.3651C77.648 65.7324 77.1756 65.9541 76.6725 65.9851H64.875C64.29 66.0186 63.74 66.2745 63.3376 66.7006C62.9353 67.1266 62.7112 67.6904 62.7112 68.2763C62.7112 68.8623 62.9353 69.4261 63.3376 69.8521C63.74 70.2781 64.29 70.5341 64.875 70.5676H70.62V74.4901C70.6022 74.802 70.6482 75.1143 70.7553 75.4078C70.8624 75.7013 71.0282 75.9698 71.2428 76.197C71.4573 76.4241 71.7159 76.6051 72.0028 76.7287C72.2897 76.8524 72.5989 76.9162 72.9113 76.9162C73.2237 76.9162 73.5329 76.8524 73.8198 76.7287C74.1067 76.6051 74.3653 76.4241 74.5798 76.197C74.7943 75.9698 74.9602 75.7013 75.0673 75.4078C75.1744 75.1143 75.2204 74.802 75.2025 74.4901V70.5676H76.6725C78.413 70.5676 80.0822 69.8762 81.3129 68.6455C82.5436 67.4148 83.2351 65.7456 83.2351 64.0051C83.2351 62.2646 82.5436 60.5954 81.3129 59.3647C80.0822 58.134 78.413 57.4426 76.6725 57.4426V57.4426Z" fill="#CF6B00"/>
</svg>
